<?xml version="1.0" encoding="iso-8859-1"?>
<!-- Generator: Adobe Illustrator 19.0.0, SVG Export Plug-In . SVG Version: 6.00 Build 0)  -->
<svg version="1.1" id="Capa_1" xmlns="http://www.w3.org/2000/svg" xmlns:xlink="http://www.w3.org/1999/xlink" x="0px" y="0px"
	 viewBox="0 0 512 512" style="enable-background:new 0 0 512 512;" xml:space="preserve">
<g>
	<g>
		<path d="M498.838,435.213l-90.405-90.423c-17.031,24.994-38.65,46.613-63.644,63.644l90.416,90.413
			C443.98,507.62,455.494,512,467.022,512s23.042-4.38,31.816-13.154C516.387,481.297,516.387,452.762,498.838,435.213z"/>
	</g>
</g>
<g>
	<g>
		<path d="M210,90c-66.167,0-120,53.833-120,120s53.833,120,120,120s120-53.833,120-120S276.167,90,210,90z"/>
	</g>
</g>
<g>
	<g>
		<path d="M210,0C94.204,0,0,94.204,0,210s94.204,210,210,210s210-94.204,210-210S325.796,0,210,0z M210,360
			c-82.705,0-150-67.295-150-150S127.295,60,210,60s150,67.295,150,150S292.705,360,210,360z"/>
	</g>
</g>
<g>
</g>
<g>
</g>
<g>
</g>
<g>
</g>
<g>
</g>
<g>
</g>
<g>
</g>
<g>
</g>
<g>
</g>
<g>
</g>
<g>
</g>
<g>
</g>
<g>
</g>
<g>
</g>
<g>
</g>
</svg>
